<?xml version="1.0" standalone="no"?>
<!DOCTYPE svg PUBLIC "-//W3C//DTD SVG 20010904//EN"
 "http://www.w3.org/TR/2001/REC-SVG-20010904/DTD/svg10.dtd">
<svg version="1.0" xmlns="http://www.w3.org/2000/svg"
 width="1280.000000pt" height="796.000000pt" viewBox="0 0 1280.000000 796.000000"
 preserveAspectRatio="xMidYMid meet">
<metadata>
Created by potrace 1.15, written by Peter Selinger 2001-2017
</metadata>
<g transform="translate(0.000000,796.000000) scale(0.100000,-0.100000)"
fill="#e91e63" stroke="none">
<path d="M6615 7954 c-322 -24 -550 -58 -798 -121 -171 -42 -402 -116 -478
-153 -20 -9 -97 -69 -170 -132 -74 -64 -174 -139 -224 -168 -143 -84 -370
-235 -479 -318 -133 -101 -389 -356 -508 -507 -112 -141 -175 -202 -403 -389
-94 -76 -194 -161 -222 -189 -29 -28 -54 -49 -56 -46 -3 2 -15 36 -27 74 -45
140 -116 262 -201 347 -32 32 -53 64 -64 100 -53 162 -103 186 -214 102 -120
-90 -176 -175 -192 -292 -5 -37 -16 -116 -24 -176 l-15 -109 -144 -217 c-159
-238 -166 -245 -381 -402 -274 -199 -615 -415 -818 -518 l-109 -55 -116 -3
c-94 -3 -157 3 -317 28 -321 50 -466 50 -566 0 -144 -74 -111 -299 106 -726
96 -189 468 -808 516 -860 72 -77 280 -127 774 -184 408 -47 540 -78 726 -170
192 -95 231 -129 526 -460 147 -165 236 -250 359 -341 l94 -70 209 -11 c204
-11 210 -11 245 10 l35 21 52 -57 c137 -149 223 -336 260 -567 6 -38 13 -209
16 -378 l5 -308 -58 22 c-78 29 -236 101 -413 188 l-143 71 -202 0 c-221 0
-445 12 -661 36 -189 20 -520 72 -575 89 -262 82 -859 83 -1404 4 -128 -19
-283 -52 -294 -64 -3 -3 -3 -8 1 -11 3 -3 135 -23 294 -44 579 -77 860 -135
1228 -254 108 -34 188 -52 345 -76 321 -48 459 -59 840 -71 l355 -11 235 -103
c415 -183 534 -219 735 -219 94 -1 148 4 195 17 80 22 189 73 253 119 45 33
50 35 100 27 175 -28 508 -29 667 -3 137 23 335 72 483 120 l86 28 203 -59
c112 -32 250 -71 308 -86 58 -15 148 -41 200 -57 52 -16 230 -60 395 -97 165
-37 340 -81 390 -96 145 -46 209 -38 273 35 48 54 63 133 37 197 -5 14 10 16
137 16 140 0 201 7 343 40 l70 15 260 -130 c143 -71 269 -132 281 -136 15 -5
24 -20 33 -60 24 -108 104 -138 230 -84 43 18 44 18 120 -6 184 -58 415 -79
519 -48 61 19 74 45 73 147 -1 47 3 85 8 85 4 0 46 -9 92 -21 118 -29 424 -79
487 -79 67 0 110 22 128 66 21 49 4 100 -52 163 -26 29 -45 53 -43 55 5 4 177
-9 259 -19 54 -6 57 -5 125 41 69 47 72 48 160 52 84 4 103 1 300 -52 220 -58
257 -64 300 -44 50 23 71 101 39 146 -16 23 -700 372 -728 372 -11 0 -26 -20
-26 -35 0 -2 45 -40 100 -84 86 -69 97 -81 78 -85 -32 -7 -168 -16 -168 -11 0
2 14 17 31 34 40 40 34 57 -21 54 -45 -2 -132 -40 -138 -60 -2 -7 9 -15 25
-18 91 -19 90 -15 11 -69 l-71 -49 -171 27 c-210 33 -377 49 -422 40 -39 -7
-84 -54 -84 -88 0 -12 9 -39 19 -60 12 -22 15 -36 8 -33 -7 2 -50 17 -97 32
-47 16 -87 30 -89 32 -2 1 13 44 34 95 20 51 58 154 84 228 l46 135 -1 160 c0
152 -2 170 -47 371 -26 116 -49 242 -53 280 -12 129 30 392 85 532 64 162 117
243 338 519 363 453 463 632 479 853 3 52 17 138 30 190 48 195 164 767 164
808 0 28 -25 39 -47 21 -14 -12 -15 -11 -10 6 17 59 29 263 24 408 -6 184 -28
287 -94 448 l-39 94 58 -29 c57 -28 127 -37 176 -22 18 6 26 -2 53 -56 42 -84
143 -183 231 -226 122 -60 331 -99 463 -87 197 18 336 84 462 219 194 207 307
546 343 1031 21 288 7 649 -27 708 -68 116 -245 112 -306 -7 -20 -39 -21 -40
-2 -325 31 -484 12 -831 -56 -1033 -73 -220 -205 -356 -378 -388 -200 -37
-475 43 -600 175 l-53 56 63 57 c35 31 102 93 148 137 l83 80 -4 190 c-5 218
-14 252 -90 327 -68 68 -198 162 -208 152 -4 -5 -49 -60 -99 -123 l-91 -113 0
-62 c0 -136 22 -429 39 -511 l17 -86 -27 -15 c-78 -40 -172 -4 -294 111 -68
64 -84 74 -107 70 -25 -4 -30 1 -49 38 -41 81 -141 237 -214 334 -436 572
-1149 1056 -2005 1360 -357 127 -797 225 -1200 268 -137 15 -608 27 -715 19z
m-1045 -572 c-200 -199 -338 -289 -795 -518 l-290 -145 55 51 c83 76 291 224
467 332 87 53 226 147 310 209 127 94 168 119 250 150 54 21 103 38 110 38 7
1 -41 -52 -107 -117z m4545 -724 c130 -113 254 -241 348 -358 74 -92 184 -254
211 -310 l16 -35 -22 29 c-13 16 -68 90 -124 165 -131 176 -291 358 -451 512
-143 137 -139 137 22 -3z m1351 -112 c80 -73 88 -94 80 -212 -3 -51 -9 -136
-12 -188 l-7 -94 -108 -108 c-60 -59 -110 -106 -113 -103 -3 2 -16 43 -29 89
-30 102 -45 225 -48 376 l-2 111 73 101 c83 115 72 113 166 28z m-614 -713
l68 -67 0 -70 0 -69 -71 104 c-40 57 -80 115 -91 129 -18 23 -18 25 -1 31 10
4 20 8 23 8 2 1 35 -29 72 -66z m-10444 -1256 c-16 -6 -28 -15 -28 -20 0 -22
132 -311 193 -422 123 -225 277 -403 446 -518 90 -60 92 -64 27 -45 -28 8 -71
39 -136 98 -52 47 -174 156 -270 241 -363 324 -507 505 -467 588 16 34 88 69
163 80 84 12 106 12 72 -2z m2367 -1847 c44 -44 77 -80 75 -80 -3 0 -41 36
-85 80 -44 44 -77 80 -75 80 3 0 41 -36 85 -80z m5303 -396 c35 -40 155 -168
265 -284 437 -458 596 -646 729 -869 77 -129 86 -169 68 -321 -9 -84 -73 -356
-86 -370 -6 -6 -102 43 -304 156 -85 48 -190 106 -232 129 l-78 41 -82 -27
c-187 -63 -381 -64 -738 -5 -258 43 -441 62 -493 52 -22 -4 -54 -22 -75 -40
l-37 -34 -95 35 c-52 18 -243 68 -425 109 -477 108 -419 102 -561 61 -153 -45
-329 -82 -466 -97 -119 -14 -485 -8 -603 9 -145 22 -135 17 -135 60 0 21 11
63 24 93 41 92 74 212 132 478 48 225 102 450 109 458 1 1 52 -31 114 -73 194
-131 392 -218 601 -263 136 -30 159 -33 304 -42 428 -26 903 76 1536 329 288
116 352 147 348 168 -2 10 -11 19 -21 21 -9 2 -92 -28 -184 -66 -327 -136
-635 -235 -898 -286 -198 -39 -223 -41 -122 -6 146 49 317 144 591 328 277
185 427 266 560 302 89 25 166 38 181 32 6 -2 39 -37 73 -78z m247 60 c151
-39 272 -112 391 -236 181 -189 300 -426 504 -1008 86 -246 190 -511 236 -601
l33 -67 -37 -6 c-20 -3 -56 -6 -79 -6 -40 0 -43 2 -43 26 0 14 -25 124 -55
244 -30 120 -57 243 -61 272 -8 63 -49 149 -134 278 -116 176 -239 326 -584
710 -124 138 -286 327 -346 404 -15 19 -13 19 50 12 36 -4 92 -14 125 -22z
m-4406 -96 c42 -62 111 -199 126 -248 4 -14 -13 2 -40 40 -27 36 -81 98 -122
139 l-75 73 28 29 c15 16 31 29 35 29 3 0 25 -28 48 -62z m1291 -109 c30 -21
100 -74 155 -119 265 -215 378 -286 530 -329 108 -30 44 -25 -90 8 -261 64
-425 142 -698 333 -21 15 -42 28 -48 30 -7 2 1 30 20 71 35 78 27 77 131 6z
m-944 -1496 c-3 -7 -10 -13 -16 -13 -6 0 -10 27 -9 68 l0 67 15 -54 c8 -30 12
-61 10 -68z"/>
<path d="M8460 821 c0 -9 60 -21 100 -20 20 1 17 4 -15 14 -47 16 -85 19 -85
6z"/>
</g>
</svg>
